<svg xmlns="http://www.w3.org/2000/svg" viewBox="0 0 656.24 454.68"><defs><style>.cls-1{fill:#fff;}.cls-2{fill:#1a8fd1;}.cls-3{fill:#e64e4e;}.cls-4{fill:#ac36e3;}</style></defs><g id="Layer_2" data-name="Layer 2"><g id="Layer_5" data-name="Layer 5"><path d="M640.58,267.75A267.54,267.54,0,0,0,644,223.56l-.08-2c-3.38-40.11-16.51-73.85-38-97.57-22.29-24.63-52.42-37.72-87.14-37.85h-.76c-31.42,1-58.48,10.46-82.73,29-4.11,3.14-8.13,6.55-12.11,10.26C413,84.28,397.08,51.31,377.06,29.83,358.61,10,337.24,0,313.53,0,282.26,0,255,13.05,234.8,37.75,223.94,51,215.33,67.68,209.66,86.34A50.6,50.6,0,0,0,192.9,98.09a128.88,128.88,0,0,0-50-10.11c-1.79,0-3.61,0-5.42.12h-.16C95.81,90.33,64.05,106.43,42.94,136,23.5,163.19,14.72,200.34,16.86,246.39l.07,1.23c.5,7.86.9,14.39,1.64,20.23a50.7,50.7,0,1,0,59.14-3.71c6.68-16.36,14-24.2,31.52-25,1.54,2,4.22,6.08,7.56,13.87,6.54,15.26,12.82,38,18.14,65.91l.33,1.44a51.48,51.48,0,0,0,4.81,11.95A172.92,172.92,0,0,0,138,360.73l0,1.43A66.32,66.32,0,0,0,155.11,403c8.68,9.8,20.27,17.94,35.43,24.9,22.8,10.46,53.58,18.11,96.87,24.09a291.61,291.61,0,0,0,39.73,2.74c8.29,0,16.66-.36,24.87-1.09,68.55-6.06,114.57-20.74,140.68-44.88A70.87,70.87,0,0,0,515.15,354a133.55,133.55,0,0,0-1.85-17.74,63,63,0,0,0,5.27-9.89c5.17-12.2,8.54-25.47,11.8-38.31,8.24-32.51,13.37-47.08,27.32-48.44,4.73.09,8.56,1.44,12.75,7.39,2,2.78,4.53,7.43,7.06,15a50.83,50.83,0,1,0,63.08,5.79Z"/><path class="cls-1" d="M495.66,354.69c-.72-19.95-6.91-38.22-13.5-55l-1-2.65-2.85.12L171.65,310,170,310l-1.12,1.19c-4.27,4.57-11.44,17.08-11.44,49.5V361a47.27,47.27,0,0,0,12.25,29c6.84,7.73,16.32,14.3,29,20.1,21,9.65,50.06,16.79,91.4,22.5a271.91,271.91,0,0,0,37.07,2.56c7.72,0,15.51-.34,23.15-1,64.09-5.67,106.34-18.68,129.16-39.78A51.37,51.37,0,0,0,495.66,354.69Z"/><path class="cls-2" d="M329.67,278c-17.17-20.92-32.81-42-47.94-62.31-13.41-18-25.91-34.84-37.93-49.5-1.28-1.38-46.63-44.55-48.25-45.21a109.14,109.14,0,0,0-52.62-13.54c-1.51,0-3,0-4.53.1-35.34,1.89-62.1,15.26-79.59,39.73C42,170.88,34.41,203.9,36.34,245.46v.07l.06.87c1.15,18.47,1.79,28.64,7,37l4.45,7.06,2.72-7.89c.87-2.5,1.72-5.06,2.54-7.53,9.53-28.52,18.54-55.47,59.39-55.47h1.36c6.55.52,13.94,9.66,20.85,25.76,7.08,16.53,13.78,40.71,19.36,69.92l0,.13,0,.12c3,11.5,14.45,24,32.35,35.14,18.36,11.44,41.58,20.16,65.38,24.55l2.33.43,1.49-1.84,74-90.64,2.07-2.53Z"/><circle class="cls-1" cx="50.71" cy="307.08" r="31.21"/><path class="cls-3" d="M624.5,223.22c-3-35.82-14.43-65.6-33-86.12s-43.65-31.33-72.7-31.44h-.14c-27.2.84-50.58,9-71.48,25-17.77,13.59-30.87,30.7-41.76,45.79l-39.76,20.45-.6.31-.47.49-63.73,67.06-2.33,2.46,2,2.71,79.75,105.68,1.25,1.65,2.07-.06c35.45-1.11,70.19-14.76,103.24-40.59a45.12,45.12,0,0,0,13.75-17.88c4.59-10.82,7.77-23.36,10.84-35.49,8-31.4,15.49-61.06,45.47-63.15h.28c12.21,0,21.76,5.12,29.18,15.66,8.77,12.47,14.78,33,17.85,60.9l1.6,14.56,6-13.35c4.73-10.47,12.65-34.05,12.65-74.31v-.34Z"/><path class="cls-4" d="M405.68,136c-9.38-40.69-24.21-72.79-42.89-92.83C348.18,27.45,331.61,19.5,313.53,19.5c-25.23,0-47.24,10.58-63.65,30.61C235.42,67.75,225.72,92.56,222.55,120l-1.94,16.78,9.26-14.12c11.6-17.7,26.67-38,40.75-38.54,11.81,2.74,18.07,11.76,19.13,27.54-.05,22-13.8,52.48-28.36,84.79-12.31,27.31-26.26,58.27-33.89,88.51a142.23,142.23,0,0,0-3.57,48.77c2,20.44,6,32.53,12.51,38.05l.73.62.93.22c26.71,6.34,51.48,9.42,75.7,9.42h1.53c2.62.05,5.28.07,7.89.07A431.17,431.17,0,0,0,384,377.71l2-.28,1-1.82c15-28.66,23.87-67.42,27.86-122A410,410,0,0,0,405.68,136Z"/><circle class="cls-1" cx="229.74" cy="132.88" r="31.19"/><path class="cls-1" d="M605.4,273.05a31.34,31.34,0,1,0,31.34,31.34A31.37,31.37,0,0,0,605.4,273.05Z"/></g></g></svg>